<svg width="254" height="73" viewBox="0 0 254 73" fill="none" xmlns="http://www.w3.org/2000/svg">
<path d="M0.315628 29L10.3556 1.4H13.7156L14.0356 7.64L6.95563 29H0.315628ZM7.07563 23.56V18.48H20.1156V23.56H7.07563ZM12.6756 7.64L12.8356 1.4H16.5156L26.5556 29H19.7556L12.6756 7.64ZM30.5656 29V1.4H36.9656V29H30.5656ZM33.5256 19.4V14.2H40.4456C41.7523 14.2 42.8056 13.9067 43.6056 13.32C44.4056 12.7333 44.8056 11.8267 44.8056 10.6C44.8056 9.37333 44.4056 8.46667 43.6056 7.88C42.8056 7.29333 41.7523 7 40.4456 7H33.5256V1.4H41.0456C42.9923 1.4 44.739 1.77333 46.2856 2.52C47.8323 3.24 49.059 4.29333 49.9656 5.68C50.8723 7.04 51.3256 8.68 51.3256 10.6C51.3256 12.44 50.8723 14.0133 49.9656 15.32C49.059 16.6267 47.8323 17.64 46.2856 18.36C44.739 19.0533 42.9923 19.4 41.0456 19.4H33.5256ZM39.0056 17.4H45.3656L52.1256 29H45.0456L39.0056 17.4ZM56.3328 24.8L72.6528 1.4L77.3728 5.6L61.0528 29L56.3328 24.8ZM56.3328 29V24.8L58.6928 23.4H77.7728V29H56.3328ZM56.7328 7V1.4H77.3728V5.6L75.0528 7H56.7328ZM81.5922 7V1.4H103.032V7H81.5922ZM89.1122 29V1.4H95.5122V29H89.1122ZM108.03 29V1.4H114.43V29H108.03ZM110.99 21.4V15.8H117.51C119.056 15.8 120.296 15.44 121.23 14.72C122.19 13.9733 122.67 12.8667 122.67 11.4C122.67 9.90667 122.19 8.8 121.23 8.08C120.296 7.36 119.056 7 117.51 7H110.99V1.4H118.11C120.19 1.4 122.07 1.8 123.75 2.6C125.43 3.4 126.75 4.54667 127.71 6.04C128.696 7.50667 129.19 9.29333 129.19 11.4C129.19 13.48 128.696 15.2667 127.71 16.76C126.75 18.2533 125.43 19.4 123.75 20.2C122.07 21 120.19 21.4 118.11 21.4H110.99ZM134.802 29V1.4H141.202V29H134.802ZM137.762 19.4V14.2H144.682C145.988 14.2 147.042 13.9067 147.842 13.32C148.642 12.7333 149.042 11.8267 149.042 10.6C149.042 9.37333 148.642 8.46667 147.842 7.88C147.042 7.29333 145.988 7 144.682 7H137.762V1.4H145.282C147.228 1.4 148.975 1.77333 150.522 2.52C152.068 3.24 153.295 4.29333 154.202 5.68C155.108 7.04 155.562 8.68 155.562 10.6C155.562 12.44 155.108 14.0133 154.202 15.32C153.295 16.6267 152.068 17.64 150.522 18.36C148.975 19.0533 147.228 19.4 145.282 19.4H137.762ZM143.242 17.4H149.602L156.362 29H149.282L143.242 17.4ZM157.978 29L168.018 1.4H171.378L171.698 7.64L164.618 29H157.978ZM164.738 23.56V18.48H177.778V23.56H164.738ZM170.338 7.64L170.498 1.4H174.178L184.218 29H177.418L170.338 7.64ZM184.638 29L194.198 13.64L196.478 10.68L201.638 1.4H208.798L199.678 16.08L197.398 19L191.798 29H184.638ZM185.038 1.4H192.398L198.718 12.16L209.198 29H201.838L195.198 17.72L185.038 1.4ZM212.598 29V24.2H226.198V29H212.598ZM212.598 6.2V1.4H226.198V6.2H212.598ZM216.198 29V1.4H222.598V29H216.198ZM230.787 26.04L233.827 20.72C235.001 21.68 236.361 22.4667 237.907 23.08C239.454 23.6667 240.961 23.96 242.427 23.96C243.307 23.96 244.041 23.8533 244.627 23.64C245.241 23.4267 245.707 23.1467 246.027 22.8C246.347 22.4533 246.507 22.0667 246.507 21.64C246.507 21.2667 246.361 20.88 246.067 20.48C245.801 20.08 245.294 19.6667 244.547 19.24C243.827 18.8133 242.761 18.3733 241.347 17.92C239.161 17.2 237.387 16.3867 236.027 15.48C234.694 14.5467 233.721 13.5333 233.107 12.44C232.494 11.3467 232.187 10.2 232.187 9C232.187 7.53333 232.574 6.18667 233.347 4.96C234.147 3.73333 235.321 2.76 236.867 2.04C238.414 1.29333 240.321 0.919999 242.587 0.919999C244.401 0.919999 246.201 1.21333 247.987 1.8C249.801 2.36 251.321 3.06667 252.547 3.92L249.707 9C248.614 8.22667 247.414 7.6 246.107 7.12C244.801 6.61333 243.454 6.36 242.067 6.36C240.947 6.36 240.094 6.57333 239.507 7C238.921 7.42667 238.627 7.92 238.627 8.48C238.627 8.88 238.774 9.26667 239.067 9.64C239.387 10.0133 239.907 10.3867 240.627 10.76C241.374 11.1333 242.374 11.5333 243.627 11.96C245.894 12.7067 247.721 13.5467 249.107 14.48C250.494 15.3867 251.507 16.4 252.147 17.52C252.787 18.6133 253.107 19.84 253.107 21.2C253.107 22.6667 252.694 24.0267 251.867 25.28C251.041 26.5333 249.787 27.5467 248.107 28.32C246.427 29.0933 244.307 29.48 241.747 29.48C240.494 29.48 239.241 29.3333 237.987 29.04C236.734 28.7733 235.507 28.3867 234.307 27.88C233.107 27.3733 231.934 26.76 230.787 26.04ZM8.23937 72V47.16H13.9994V72H8.23937ZM10.9034 72V67.176H17.8514C18.8114 67.176 19.5794 66.948 20.1554 66.492C20.7554 66.012 21.0554 65.316 21.0554 64.404C21.0554 63.492 20.7554 62.808 20.1554 62.352C19.5794 61.872 18.8114 61.632 17.8514 61.632H10.9034V58.032H18.3914C20.0954 58.032 21.5834 58.332 22.8554 58.932C24.1274 59.508 25.1234 60.336 25.8434 61.416C26.5634 62.472 26.9234 63.72 26.9234 65.16C26.9234 66.6 26.5394 67.836 25.7714 68.868C25.0274 69.876 24.0074 70.656 22.7114 71.208C21.4394 71.736 19.9994 72 18.3914 72H10.9034ZM10.9034 60.192V57.168H17.1314C18.0434 57.168 18.7754 56.952 19.3274 56.52C19.8794 56.064 20.1554 55.416 20.1554 54.576C20.1554 53.736 19.8794 53.1 19.3274 52.668C18.7754 52.212 18.0434 51.984 17.1314 51.984H10.9034V47.16H17.4914C19.0514 47.16 20.4674 47.436 21.7394 47.988C23.0114 48.516 24.0074 49.272 24.7274 50.256C25.4714 51.24 25.8434 52.428 25.8434 53.82C25.8434 55.212 25.4714 56.388 24.7274 57.348C24.0074 58.284 23.0114 58.992 21.7394 59.472C20.4914 59.952 19.0754 60.192 17.4914 60.192H10.9034ZM32.3341 72V47.16H38.0941V72H32.3341ZM34.9981 72V66.96H49.9741V72H34.9981ZM34.9981 61.848V57.096H48.1021V61.848H34.9981ZM34.9981 52.2V47.16H49.7941V52.2H34.9981ZM55.7256 72V47.16H61.4856V72H55.7256ZM58.3896 63.36V58.68H64.6176C65.7936 58.68 66.7416 58.416 67.4616 57.888C68.1816 57.36 68.5416 56.544 68.5416 55.44C68.5416 54.336 68.1816 53.52 67.4616 52.992C66.7416 52.464 65.7936 52.2 64.6176 52.2H58.3896V47.16H65.1576C66.9096 47.16 68.4816 47.496 69.8736 48.168C71.2656 48.816 72.3696 49.764 73.1856 51.012C74.0016 52.236 74.4096 53.712 74.4096 55.44C74.4096 57.096 74.0016 58.512 73.1856 59.688C72.3696 60.864 71.2656 61.776 69.8736 62.424C68.4816 63.048 66.9096 63.36 65.1576 63.36H58.3896ZM63.3216 61.56H69.0456L75.1296 72H68.7576L63.3216 61.56ZM78.5561 59.58C78.5561 57.564 78.8801 55.764 79.5281 54.18C80.2001 52.596 81.1001 51.252 82.2281 50.148C83.3801 49.044 84.6881 48.204 86.1521 47.628C87.6401 47.028 89.2121 46.728 90.8681 46.728C92.4281 46.728 93.8921 46.92 95.2601 47.304C96.6281 47.688 97.9961 48.276 99.3641 49.068L96.6281 53.964C95.7641 53.364 94.8641 52.896 93.9281 52.56C93.0161 52.224 92.0441 52.056 91.0121 52.056C89.7881 52.056 88.6721 52.344 87.6641 52.92C86.6801 53.472 85.8881 54.312 85.2881 55.44C84.7121 56.544 84.4241 57.924 84.4241 59.58C84.4241 61.236 84.7121 62.652 85.2881 63.828C85.8641 64.98 86.6441 65.868 87.6281 66.492C88.6121 67.092 89.7281 67.392 90.9761 67.392C91.4801 67.392 92.0441 67.332 92.6681 67.212C93.3161 67.092 93.9401 66.9 94.5401 66.636L100.084 69.084C98.6201 70.188 97.1201 71.028 95.5841 71.604C94.0721 72.156 92.4521 72.432 90.7241 72.432C89.1161 72.432 87.5801 72.144 86.1161 71.568C84.6521 70.968 83.3561 70.116 82.2281 69.012C81.1001 67.908 80.2001 66.564 79.5281 64.98C78.8801 63.396 78.5561 61.596 78.5561 59.58ZM89.8601 63.036V58.248H97.6361V63.036H89.8601ZM94.5401 69.48V58.248H100.084V69.084L94.5401 69.48ZM105.849 72V47.16H111.609V72H105.849ZM108.513 72V66.96H123.489V72H108.513ZM108.513 61.848V57.096H121.617V61.848H108.513ZM108.513 52.2V47.16H123.309V52.2H108.513ZM129.24 72V47.16H135V72H129.24ZM131.904 63.36V58.68H138.132C139.308 58.68 140.256 58.416 140.976 57.888C141.696 57.36 142.056 56.544 142.056 55.44C142.056 54.336 141.696 53.52 140.976 52.992C140.256 52.464 139.308 52.2 138.132 52.2H131.904V47.16H138.672C140.424 47.16 141.996 47.496 143.388 48.168C144.78 48.816 145.884 49.764 146.7 51.012C147.516 52.236 147.924 53.712 147.924 55.44C147.924 57.096 147.516 58.512 146.7 59.688C145.884 60.864 144.78 61.776 143.388 62.424C141.996 63.048 140.424 63.36 138.672 63.36H131.904ZM136.836 61.56H142.56L148.644 72H142.272L136.836 61.56ZM153.511 72V47.16H159.271V72H153.511ZM156.175 61.992V56.952H171.871V61.992H156.175ZM168.775 72V47.16H174.535V72H168.775ZM179.751 59.58C179.751 57.564 180.051 55.764 180.651 54.18C181.275 52.596 182.127 51.252 183.207 50.148C184.287 49.044 185.535 48.204 186.951 47.628C188.391 47.028 189.915 46.728 191.523 46.728C193.155 46.728 194.679 47.028 196.095 47.628C197.511 48.204 198.759 49.044 199.839 50.148C200.919 51.252 201.759 52.596 202.359 54.18C202.983 55.764 203.295 57.564 203.295 59.58C203.295 61.596 202.983 63.396 202.359 64.98C201.759 66.564 200.919 67.908 199.839 69.012C198.759 70.116 197.511 70.968 196.095 71.568C194.679 72.144 193.167 72.432 191.559 72.432C189.927 72.432 188.391 72.144 186.951 71.568C185.535 70.968 184.287 70.116 183.207 69.012C182.127 67.908 181.275 66.564 180.651 64.98C180.051 63.396 179.751 61.596 179.751 59.58ZM185.619 59.58C185.619 60.876 185.763 62.004 186.051 62.964C186.363 63.924 186.783 64.728 187.311 65.376C187.839 66.024 188.463 66.504 189.183 66.816C189.903 67.128 190.683 67.284 191.523 67.284C192.363 67.284 193.143 67.128 193.863 66.816C194.583 66.504 195.207 66.024 195.735 65.376C196.263 64.728 196.671 63.924 196.959 62.964C197.271 62.004 197.427 60.876 197.427 59.58C197.427 58.284 197.271 57.156 196.959 56.196C196.671 55.236 196.263 54.432 195.735 53.784C195.207 53.136 194.583 52.656 193.863 52.344C193.143 52.032 192.363 51.876 191.523 51.876C190.683 51.876 189.903 52.032 189.183 52.344C188.463 52.656 187.839 53.136 187.311 53.784C186.783 54.432 186.363 55.236 186.051 56.196C185.763 57.156 185.619 58.284 185.619 59.58ZM208.52 72V47.16H214.28V72H208.52ZM211.184 63.108V58.068H224V63.108H211.184ZM211.184 52.2V47.16H225.44V52.2H211.184ZM230.47 72V47.16H236.23V72H230.47ZM233.134 63.108V58.068H245.95V63.108H233.134ZM233.134 52.2V47.16H247.39V52.2H233.134Z" fill="white"/>
</svg>
