<?xml version="1.0" encoding="UTF-8" standalone="no"?>
<!-- Created with Inkscape (http://www.inkscape.org/) -->

<svg
   width="317"
   height="166"
   viewBox="0 0 83.872917 43.920833"
   version="1.1"
   id="svg5"
   inkscape:version="1.1.2 (b8e25be833, 2022-02-05)"
   xmlns:inkscape="http://www.inkscape.org/namespaces/inkscape"
   xmlns:sodipodi="http://sodipodi.sourceforge.net/DTD/sodipodi-0.dtd"
   xmlns="http://www.w3.org/2000/svg"
   xmlns:svg="http://www.w3.org/2000/svg">
  <sodipodi:namedview
     id="namedview7"
     pagecolor="#ffffff"
     bordercolor="#666666"
     borderopacity="1.0"
     inkscape:pageshadow="2"
     inkscape:pageopacity="0"
     inkscape:pagecheckerboard="true"
     inkscape:document-units="px"
     showgrid="false"
     fit-margin-top="0"
     fit-margin-left="0"
     fit-margin-right="0"
     fit-margin-bottom="0"
     units="px"
     inkscape:zoom="0.74029882"
     inkscape:cx="658.51787"
     inkscape:cy="353.91114"
     inkscape:window-width="1920"
     inkscape:window-height="1017"
     inkscape:window-x="-8"
     inkscape:window-y="-8"
     inkscape:window-maximized="1"
     inkscape:current-layer="layer1" />
  <defs
     id="defs2" />
  <g
     inkscape:label="Layer 1"
     inkscape:groupmode="layer"
     id="layer1"
     transform="translate(69.098913,-54.880739)">
    <g
       style="fill:none"
       id="g836"
       transform="matrix(0.26458333,0,0,0.26458333,-69.098913,54.880739)">
      <rect
         x="3"
         y="34"
         width="311"
         height="129"
         rx="14"
         stroke="#ffffff"
         stroke-width="6"
         id="rect824" />
      <rect
         x="121.5"
         y="2.5"
         width="70"
         height="32"
         rx="5.5"
         stroke="#ffffff"
         stroke-width="5"
         id="rect826" />
    </g>
    <g
       style="fill:none"
       id="g6231"
       transform="matrix(0.26458333,0,0,0.26458333,-60.330756,71.426106)">
      <path
         d="M 0.315628,29 10.3556,1.4 h 3.36 l 0.32,6.24 L 6.95563,29 Z M 7.07563,23.56 V 18.48 H 20.1156 v 5.08 z M 12.6756,7.64 12.8356,1.4 h 3.68 l 10.04,27.6 h -6.8 z M 30.5656,29 V 1.4 h 6.4 V 29 Z m 2.96,-9.6 v -5.2 h 6.92 c 1.3067,0 2.36,-0.2933 3.16,-0.88 0.8,-0.5867 1.2,-1.4933 1.2,-2.72 0,-1.22667 -0.4,-2.13333 -1.2,-2.72 C 42.8056,7.29333 41.7523,7 40.4456,7 h -6.92 V 1.4 h 7.52 c 1.9467,0 3.6934,0.37333 5.24,1.12 1.5467,0.72 2.7734,1.77333 3.68,3.16 0.9067,1.36 1.36,3 1.36,4.92 0,1.84 -0.4533,3.4133 -1.36,4.72 -0.9066,1.3067 -2.1333,2.32 -3.68,3.04 -1.5466,0.6933 -3.2933,1.04 -5.24,1.04 z m 5.48,-2 h 6.36 l 6.76,11.6 h -7.08 z m 17.3272,7.4 16.32,-23.4 4.72,4.2 -16.32,23.4 z m 0,4.2 v -4.2 l 2.36,-1.4 h 19.08 V 29 Z m 0.4,-22 V 1.4 h 20.64 V 5.6 L 75.0528,7 Z M 81.5922,7 V 1.4 H 103.032 V 7 Z m 7.52,22 V 1.4 h 6.4 V 29 Z M 108.03,29 V 1.4 h 6.4 V 29 Z m 2.96,-7.6 v -5.6 h 6.52 c 1.546,0 2.786,-0.36 3.72,-1.08 0.96,-0.7467 1.44,-1.8533 1.44,-3.32 0,-1.49333 -0.48,-2.6 -1.44,-3.32 C 120.296,7.36 119.056,7 117.51,7 h -6.52 V 1.4 h 7.12 c 2.08,0 3.96,0.4 5.64,1.2 1.68,0.8 3,1.94667 3.96,3.44 0.986,1.46667 1.48,3.25333 1.48,5.36 0,2.08 -0.494,3.8667 -1.48,5.36 -0.96,1.4933 -2.28,2.64 -3.96,3.44 -1.68,0.8 -3.56,1.2 -5.64,1.2 z M 134.802,29 V 1.4 h 6.4 V 29 Z m 2.96,-9.6 v -5.2 h 6.92 c 1.306,0 2.36,-0.2933 3.16,-0.88 0.8,-0.5867 1.2,-1.4933 1.2,-2.72 0,-1.22667 -0.4,-2.13333 -1.2,-2.72 C 147.042,7.29333 145.988,7 144.682,7 h -6.92 V 1.4 h 7.52 c 1.946,0 3.693,0.37333 5.24,1.12 1.546,0.72 2.773,1.77333 3.68,3.16 0.906,1.36 1.36,3 1.36,4.92 0,1.84 -0.454,3.4133 -1.36,4.72 -0.907,1.3067 -2.134,2.32 -3.68,3.04 -1.547,0.6933 -3.294,1.04 -5.24,1.04 z m 5.48,-2 h 6.36 l 6.76,11.6 h -7.08 z M 157.978,29 168.018,1.4 h 3.36 l 0.32,6.24 -7.08,21.36 z m 6.76,-5.44 v -5.08 h 13.04 v 5.08 z m 5.6,-15.92 0.16,-6.24 h 3.68 l 10.04,27.6 h -6.8 z m 14.3,21.36 9.56,-15.36 2.28,-2.96 5.16,-9.28 h 7.16 l -9.12,14.68 -2.28,2.92 -5.6,10 z m 0.4,-27.6 h 7.36 l 6.32,10.76 10.48,16.84 h -7.36 l -6.64,-11.28 z m 27.56,27.6 v -4.8 h 13.6 V 29 Z m 0,-22.8 V 1.4 h 13.6 v 4.8 z m 3.6,22.8 V 1.4 h 6.4 V 29 Z m 14.589,-2.96 3.04,-5.32 c 1.174,0.96 2.534,1.7467 4.08,2.36 1.547,0.5867 3.054,0.88 4.52,0.88 0.88,0 1.614,-0.1067 2.2,-0.32 0.614,-0.2133 1.08,-0.4933 1.4,-0.84 0.32,-0.3467 0.48,-0.7333 0.48,-1.16 0,-0.3733 -0.146,-0.76 -0.44,-1.16 -0.266,-0.4 -0.773,-0.8133 -1.52,-1.24 -0.72,-0.4267 -1.786,-0.8667 -3.2,-1.32 -2.186,-0.72 -3.96,-1.5333 -5.32,-2.44 -1.333,-0.9333 -2.306,-1.9467 -2.92,-3.04 -0.613,-1.0933 -0.92,-2.24 -0.92,-3.44 0,-1.46667 0.387,-2.81333 1.16,-4.04 0.8,-1.22667 1.974,-2.2 3.52,-2.92 1.547,-0.74667 3.454,-1.120001 5.72,-1.120001 1.814,0 3.614,0.293331 5.4,0.880001 1.814,0.56 3.334,1.26667 4.56,2.12 L 249.707,9 c -1.093,-0.77333 -2.293,-1.4 -3.6,-1.88 -1.306,-0.50667 -2.653,-0.76 -4.04,-0.76 -1.12,0 -1.973,0.21333 -2.56,0.64 -0.586,0.42667 -0.88,0.92 -0.88,1.48 0,0.4 0.147,0.78667 0.44,1.16 0.32,0.3733 0.84,0.7467 1.56,1.12 0.747,0.3733 1.747,0.7733 3,1.2 2.267,0.7467 4.094,1.5867 5.48,2.52 1.387,0.9067 2.4,1.92 3.04,3.04 0.64,1.0933 0.96,2.32 0.96,3.68 0,1.4667 -0.413,2.8267 -1.24,4.08 -0.826,1.2533 -2.08,2.2667 -3.76,3.04 -1.68,0.7733 -3.8,1.16 -6.36,1.16 -1.253,0 -2.506,-0.1467 -3.76,-0.44 -1.253,-0.2667 -2.48,-0.6533 -3.68,-1.16 -1.2,-0.5067 -2.373,-1.12 -3.52,-1.84 z M 8.23937,72 V 47.16 H 13.9994 V 72 Z m 2.66403,0 v -4.824 h 6.948 c 0.96,0 1.728,-0.228 2.304,-0.684 0.6,-0.48 0.9,-1.176 0.9,-2.088 0,-0.912 -0.3,-1.596 -0.9,-2.052 -0.576,-0.48 -1.344,-0.72 -2.304,-0.72 h -6.948 v -3.6 h 7.488 c 1.704,0 3.192,0.3 4.464,0.9 1.272,0.576 2.268,1.404 2.988,2.484 0.72,1.056 1.08,2.304 1.08,3.744 0,1.44 -0.384,2.676 -1.152,3.708 -0.744,1.008 -1.764,1.788 -3.06,2.34 -1.272,0.528 -2.712,0.792 -4.32,0.792 z m 0,-11.808 v -3.024 h 6.228 c 0.912,0 1.644,-0.216 2.196,-0.648 0.552,-0.456 0.828,-1.104 0.828,-1.944 0,-0.84 -0.276,-1.476 -0.828,-1.908 -0.552,-0.456 -1.284,-0.684 -2.196,-0.684 h -6.228 V 47.16 h 6.588 c 1.56,0 2.976,0.276 4.248,0.828 1.272,0.528 2.268,1.284 2.988,2.268 0.744,0.984 1.116,2.172 1.116,3.564 0,1.392 -0.372,2.568 -1.116,3.528 -0.72,0.936 -1.716,1.644 -2.988,2.124 -1.248,0.48 -2.664,0.72 -4.248,0.72 z M 32.3341,72 V 47.16 h 5.76 V 72 Z m 2.664,0 v -5.04 h 14.976 V 72 Z m 0,-10.152 v -4.752 h 13.104 v 4.752 z m 0,-9.648 v -5.04 h 14.796 V 52.2 Z M 55.7256,72 V 47.16 h 5.76 V 72 Z m 2.664,-8.64 v -4.68 h 6.228 c 1.176,0 2.124,-0.264 2.844,-0.792 0.72,-0.528 1.08,-1.344 1.08,-2.448 0,-1.104 -0.36,-1.92 -1.08,-2.448 -0.72,-0.528 -1.668,-0.792 -2.844,-0.792 h -6.228 v -5.04 h 6.768 c 1.752,0 3.324,0.336 4.716,1.008 1.392,0.648 2.496,1.596 3.312,2.844 0.816,1.224 1.224,2.7 1.224,4.428 0,1.656 -0.408,3.072 -1.224,4.248 -0.816,1.176 -1.92,2.088 -3.312,2.736 -1.392,0.624 -2.964,0.936 -4.716,0.936 z m 4.932,-1.8 h 5.724 L 75.1296,72 h -6.372 z m 15.2345,-1.98 c 0,-2.016 0.324,-3.816 0.972,-5.4 0.672,-1.584 1.572,-2.928 2.7,-4.032 1.152,-1.104 2.46,-1.944 3.924,-2.52 1.488,-0.6 3.06,-0.9 4.716,-0.9 1.56,0 3.024,0.192 4.392,0.576 1.368,0.384 2.736,0.972 4.104,1.764 l -2.736,4.896 c -0.864,-0.6 -1.764,-1.068 -2.7,-1.404 -0.912,-0.336 -1.884,-0.504 -2.916,-0.504 -1.224,0 -2.34,0.288 -3.348,0.864 -0.984,0.552 -1.776,1.392 -2.376,2.52 -0.576,1.104 -0.864,2.484 -0.864,4.14 0,1.656 0.288,3.072 0.864,4.248 0.576,1.152 1.356,2.04 2.34,2.664 0.984,0.6 2.1,0.9 3.348,0.9 0.504,0 1.068,-0.06 1.692,-0.18 0.648,-0.12 1.272,-0.312 1.872,-0.576 l 5.5439,2.448 c -1.4639,1.104 -2.9639,1.944 -4.4999,2.52 -1.512,0.552 -3.132,0.828 -4.86,0.828 -1.608,0 -3.144,-0.288 -4.608,-0.864 -1.464,-0.6 -2.76,-1.452 -3.888,-2.556 -1.128,-1.104 -2.028,-2.448 -2.7,-4.032 -0.648,-1.584 -0.972,-3.384 -0.972,-5.4 z m 11.304,3.456 v -4.788 h 7.776 v 4.788 z m 4.68,6.444 V 58.248 h 5.5439 V 69.084 Z M 105.849,72 V 47.16 h 5.76 V 72 Z m 2.664,0 v -5.04 h 14.976 V 72 Z m 0,-10.152 v -4.752 h 13.104 v 4.752 z m 0,-9.648 v -5.04 h 14.796 V 52.2 Z M 129.24,72 V 47.16 H 135 V 72 Z m 2.664,-8.64 v -4.68 h 6.228 c 1.176,0 2.124,-0.264 2.844,-0.792 0.72,-0.528 1.08,-1.344 1.08,-2.448 0,-1.104 -0.36,-1.92 -1.08,-2.448 -0.72,-0.528 -1.668,-0.792 -2.844,-0.792 h -6.228 v -5.04 h 6.768 c 1.752,0 3.324,0.336 4.716,1.008 1.392,0.648 2.496,1.596 3.312,2.844 0.816,1.224 1.224,2.7 1.224,4.428 0,1.656 -0.408,3.072 -1.224,4.248 -0.816,1.176 -1.92,2.088 -3.312,2.736 -1.392,0.624 -2.964,0.936 -4.716,0.936 z m 4.932,-1.8 h 5.724 L 148.644,72 h -6.372 z M 153.511,72 V 47.16 h 5.76 V 72 Z m 2.664,-10.008 v -5.04 h 15.696 v 5.04 z M 168.775,72 V 47.16 h 5.76 V 72 Z m 10.976,-12.42 c 0,-2.016 0.3,-3.816 0.9,-5.4 0.624,-1.584 1.476,-2.928 2.556,-4.032 1.08,-1.104 2.328,-1.944 3.744,-2.52 1.44,-0.6 2.964,-0.9 4.572,-0.9 1.632,0 3.156,0.3 4.572,0.9 1.416,0.576 2.664,1.416 3.744,2.52 1.08,1.104 1.92,2.448 2.52,4.032 0.624,1.584 0.936,3.384 0.936,5.4 0,2.016 -0.312,3.816 -0.936,5.4 -0.6,1.584 -1.44,2.928 -2.52,4.032 -1.08,1.104 -2.328,1.956 -3.744,2.556 -1.416,0.576 -2.928,0.864 -4.536,0.864 -1.632,0 -3.168,-0.288 -4.608,-0.864 -1.416,-0.6 -2.664,-1.452 -3.744,-2.556 -1.08,-1.104 -1.932,-2.448 -2.556,-4.032 -0.6,-1.584 -0.9,-3.384 -0.9,-5.4 z m 5.868,0 c 0,1.296 0.144,2.424 0.432,3.384 0.312,0.96 0.732,1.764 1.26,2.412 0.528,0.648 1.152,1.128 1.872,1.44 0.72,0.312 1.5,0.468 2.34,0.468 0.84,0 1.62,-0.156 2.34,-0.468 0.72,-0.312 1.344,-0.792 1.872,-1.44 0.528,-0.648 0.936,-1.452 1.224,-2.412 0.312,-0.96 0.468,-2.088 0.468,-3.384 0,-1.296 -0.156,-2.424 -0.468,-3.384 -0.288,-0.96 -0.696,-1.764 -1.224,-2.412 -0.528,-0.648 -1.152,-1.128 -1.872,-1.44 -0.72,-0.312 -1.5,-0.468 -2.34,-0.468 -0.84,0 -1.62,0.156 -2.34,0.468 -0.72,0.312 -1.344,0.792 -1.872,1.44 -0.528,0.648 -0.948,1.452 -1.26,2.412 -0.288,0.96 -0.432,2.088 -0.432,3.384 z M 208.52,72 V 47.16 h 5.76 V 72 Z m 2.664,-8.892 v -5.04 H 224 v 5.04 z m 0,-10.908 V 47.16 H 225.44 V 52.2 Z M 230.47,72 V 47.16 h 5.76 V 72 Z m 2.664,-8.892 v -5.04 h 12.816 v 5.04 z m 0,-10.908 v -5.04 h 14.256 v 5.04 z"
         fill="#ffffff"
         id="path6222" />
    </g>
  </g>
</svg>
